#!OML:ASF C:\Vicon Data\Big\jianyuan-12\jianyuan\Session 1\Capture.male.ASF
:FULLY-SPECIFIED
:DEGREES
28
root -8.293481 17.410161 -21.314229 4.917625 -2.703463 8.655879
lowerback -10.843672 -3.666476 -6.541711 
upperback 1.348596 -3.989481 -0.029818 
thorax 7.992274 -2.220770 2.930847 
lowerneck 1.361898 -10.355712 -7.348645 
upperneck 1.117075 -14.024354 13.098244 
head 1.572877 -6.950481 4.790671 
rclavicle 0.000000 0.000000 
rhumerus -48.472357 -39.787383 -63.649555 
rradius 27.887103 
rwrist 48.988527 
rhand -19.429261 -5.240084 
rfingers 0.000000 
rthumb 6.890785 -35.107971 
lclavicle 0.000000 0.000000 
lhumerus -24.509693 20.046868 85.285453 
lradius 35.631257 
lwrist -36.744760 
lhand -11.051394 5.657590 
lfingers 0.000000 
lthumb 14.970969 35.096449 
rfemur -30.326812 -3.293039 19.966081 
rtibia 33.342579 
rfoot -18.700334 -10.390899 
rtoes 11.791862 
lfemur -2.817585 7.119528 -24.399338 
ltibia 46.005255 
lfoot 1.289619 3.657463 
ltoes -30.119530 
29
root -8.316885 17.414965 -21.228797 4.901250 -2.740846 8.509536
lowerback -10.849380 -3.650300 -6.401052 
upperback 1.339168 -3.990489 0.004237 
thorax 7.977029 -2.215845 2.888520 
lowerneck 1.343306 -10.366137 -7.235729 
upperneck 1.103070 -14.032516 13.026371 
head 1.559399 -6.954019 4.751969 
rclavicle 0.000000 0.000000 
rhumerus -48.000866 -39.496584 -64.208826 
rradius 27.977244 
rwrist 48.844084 
rhand -19.354046 -5.234891 
rfingers 0.000000 
rthumb 6.963353 -35.100353 
lclavicle 0.000000 0.000000 
lhumerus -24.940271 20.177144 85.036308 
lradius 35.310678 
lwrist -36.870547 
lhand -11.046466 5.711421 
lfingers 0.000000 
lthumb 14.975781 35.149944 
rfemur -29.972855 -3.411201 20.224482 
rtibia 33.349103 
rfoot -18.890503 -10.148573 
rtoes 11.589971 
lfemur -3.739241 7.307808 -24.078446 
ltibia 47.671677 
lfoot 2.362002 4.010881 
ltoes -29.328306 
30
root -8.336507 17.421544 -21.144847 4.830304 -2.682963 8.381477
lowerback -10.805314 -3.663934 -6.233543 
upperback 1.360724 -4.036088 0.017823 
thorax 7.967880 -2.231881 2.802461 
lowerneck 1.326100 -10.384881 -7.168379 
upperneck 1.070737 -14.052414 13.019548 
head 1.549564 -6.963544 4.738933 
rclavicle 0.000000 0.000000 
rhumerus -47.504033 -39.172027 -64.842516 
rradius 28.074879 
rwrist 48.422752 
rhand -19.449340 -5.287821 
rfingers 0.000000 
rthumb 6.871398 -35.156270 
lclavicle 0.000000 0.000000 
lhumerus -25.347403 20.335626 84.772266 
lradius 35.030509 
lwrist -37.070873 
lhand -10.875929 5.734953 
lfingers 0.000000 
lthumb 15.140060 35.161131 
rfemur -29.532094 -3.498710 20.425996 
rtibia 33.326291 
rfoot -19.143966 -10.032629 
rtoes 11.354541 
lfemur -4.587954 7.342191 -23.786438 
ltibia 49.312045 
lfoot 3.154982 4.383074 
ltoes -28.487519 
31
root -8.360481 17.426205 -21.063553 4.821507 -2.698309 8.079894
lowerback -10.796928 -3.648324 -5.939626 
upperback 1.356554 -4.062903 0.085861 
thorax 7.943534 -2.234105 2.706369 
lowerneck 1.391814 -10.376419 -7.149537 
upperneck 0.986831 -14.036007 13.108727 
head 1.517854 -6.958277 4.769384 
rclavicle 0.000000 0.000000 
rhumerus -47.042171 -38.806643 -65.446682 
rradius 28.206059 
rwrist 48.112184 
rhand -19.453096 -5.441254 
rfingers 0.000000 
rthumb 6.867773 -35.309871 
lclavicle 0.000000 0.000000 
lhumerus -25.772722 20.563333 84.454650 
lradius 34.696680 
lwrist -37.490032 
lhand -10.723745 5.590662 
lfingers 0.000000 
lthumb 15.286597 35.005768 
rfemur -29.146077 -3.398890 20.816032 
rtibia 33.271998 
rfoot -19.433369 -10.001616 
rtoes 11.156302 
lfemur -5.494326 7.432801 -23.301402 
ltibia 50.929656 
lfoot 3.745941 4.696177 
ltoes -27.704596 
32
root -8.381948 17.428030 -20.984498 4.726887 -2.683955 7.856278
lowerback -10.709002 -3.629273 -5.713055 
upperback 1.387077 -4.078236 0.128922 
thorax 7.913175 -2.233826 2.626640 
lowerneck 1.429337 -10.382573 -7.136901 
upperneck 0.884254 -14.037005 13.226831 
head 1.489679 -6.960939 4.807150 
rclavicle 0.000000 0.000000 
rhumerus -46.534114 -38.562885 -66.033264 
rradius 28.295586 
rwrist 47.522062 
rhand -19.363530 -5.408956 
rfingers 0.000000 
rthumb 6.954199 -35.274749 
lclavicle 0.000000 0.000000 
lhumerus -26.198857 20.681765 84.185768 
lradius 34.433259 
lwrist -37.891679 
lhand -10.624010 5.532671 
lfingers 0.000000 
lthumb 15.382696 34.940404 
rfemur -28.684821 -3.447052 21.133175 
rtibia 33.213536 
rfoot -19.665366 -9.887186 
rtoes 10.980232 
lfemur -6.291753 7.518879 -22.914433 
ltibia 52.470098 
lfoot 4.188694 4.994654 
ltoes -27.645152 
33
root -8.404551 17.431799 -20.909110 4.793879 -2.741064 7.552423
lowerback -10.762119 -3.580200 -5.399604 
upperback 1.371034 -4.058058 0.192740 
thorax 7.904880 -2.211981 2.521018 
lowerneck 1.430503 -10.425957 -7.155117 
upperneck 0.828744 -14.092080 13.366251 
head 1.490659 -6.987932 4.849299 
rclavicle 0.000000 0.000000 
rhumerus -46.101336 -38.368908 -66.518936 
rradius 28.393997 
rwrist 47.308246 
rhand -19.464838 -5.271273 
rfingers 0.000000 
rthumb 6.856480 -35.140266 
lclavicle 0.000000 0.000000 
lhumerus -26.536870 20.848027 83.909545 
lradius 34.033137 
lwrist -38.357287 
lhand -10.459273 5.339159 
lfingers 0.000000 
lthumb 15.541345 34.734618 
rfemur -28.396004 -3.285246 21.531323 
rtibia 33.129321 
rfoot -19.870862 -9.972375 
rtoes 10.769530 
lfemur -7.270673 7.700878 -22.444463 
ltibia 53.978097 
lfoot 4.327444 5.223467 
ltoes -27.005702 
34
root -8.425155 17.431594 -20.831008 4.693775 -2.772726 7.347644
lowerback -10.678679 -3.539242 -5.185764 
upperback 1.407570 -4.039785 0.219183 
thorax 7.880330 -2.195530 2.436486 
lowerneck 1.383586 -10.435591 -7.040668 
upperneck 0.820256 -14.098799 13.381262 
head 1.489616 -6.988183 4.833993 
rclavicle 0.000000 0.000000 
rhumerus -45.579009 -37.817882 -67.314750 
rradius 28.637940 
rwrist 46.443301 
rhand -19.559045 -5.421057 
rfingers 0.000000 
rthumb 6.765478 -35.292947 
lclavicle 0.000000 0.000000 
lhumerus -26.871990 20.984244 83.635133 
lradius 33.653533 
lwrist -38.743678 
lhand -10.431033 5.272247 
lfingers 0.000000 
lthumb 15.568618 34.665583 
rfemur -27.931448 -3.110144 21.785263 
rtibia 33.074194 
rfoot -20.213131 -9.984194 
rtoes 10.564395 
lfemur -8.024137 7.731756 -22.140910 
ltibia 55.427827 
lfoot 3.972763 5.573438 
ltoes -27.314341 
35
root -8.447007 17.431195 -20.756873 4.632160 -2.837779 6.953166
lowerback -10.618485 -3.464292 -4.786065 
upperback 1.449605 -4.003618 0.294840 
thorax 7.863181 -2.164000 2.302178 
lowerneck 1.392048 -10.485821 -6.955761 
upperneck 0.713626 -14.155166 13.407276 
head 1.458787 -7.018360 4.829730 
rclavicle 0.000000 0.000000 
rhumerus -45.140022 -37.641352 -67.802036 
rradius 28.743241 
rwrist 46.279585 
rhand -19.586167 -5.380995 
rfingers 0.000000 
rthumb 6.739319 -35.253738 
lclavicle 0.000000 0.000000 
lhumerus -27.229778 21.276678 83.331110 
lradius 33.293710 
lwrist -39.553495 
lhand -10.387699 5.044047 
lfingers 0.000000 
lthumb 15.610263 34.434169 
rfemur -27.500913 -2.992569 22.278473 
rtibia 33.020358 
rfoot -20.480278 -9.930342 
rtoes 10.421412 
lfemur -8.828079 7.851883 -21.598879 
ltibia 56.886513 
lfoot 3.314862 5.895134 
ltoes -28.092316 
36
root -8.475005 17.430106 -20.691949 4.603570 -2.807317 6.745473
lowerback -10.486105 -3.454824 -4.691425 
upperback 1.449018 -4.017273 0.367407 
thorax 7.786091 -2.168023 2.330918 
lowerneck 1.380054 -10.533215 -6.914976 
upperneck 0.659805 -14.212897 13.417406 
head 1.448825 -7.047725 4.824529 
rclavicle 0.000000 0.000000 
rhumerus -44.623388 -37.172075 -68.452297 
rradius 28.963655 
rwrist 45.647890 
rhand -19.544270 -5.473856 
rfingers 0.000000 
rthumb 6.779741 -35.345325 
lclavicle 0.000000 0.000000 
lhumerus -27.610274 21.396916 83.071336 
lradius 32.924003 
lwrist -40.419436 
lhand -10.504721 4.900466 
lfingers 0.000000 
lthumb 15.497607 34.299363 
rfemur -27.158329 -2.904576 22.593970 
rtibia 32.986597 
rfoot -20.763056 -9.946715 
rtoes 10.375536 
lfemur -9.742649 7.903290 -21.223444 
ltibia 58.318392 
lfoot 2.713404 6.123989 
ltoes -28.586747 
37
root -8.494534 17.429414 -20.627218 4.620807 -2.588157 6.560687
lowerback -10.394832 -3.496135 -4.518052 
upperback 1.437181 -4.103459 0.405689 
thorax 7.717790 -2.202760 2.264400 
lowerneck 1.441567 -10.562196 -6.831072 
upperneck 0.527060 -14.239283 13.475634 
head 1.401061 -7.065235 4.835456 
rclavicle 0.000000 0.000000 
rhumerus -44.168199 -36.940409 -68.964549 
rradius 29.135817 
rwrist 45.333461 
rhand -19.459055 -5.450979 
rfingers 0.000000 
rthumb 6.861990 -35.319725 
lclavicle 0.000000 0.000000 
lhumerus -27.919916 21.365658 82.861180 
lradius 32.605215 
lwrist -40.748050 
lhand -10.341328 4.898318 
lfingers 0.000000 
lthumb 15.654944 34.284952 
rfemur -26.857870 -3.016442 22.870361 
rtibia 32.943504 
rfoot -21.034157 -9.952961 
rtoes 10.326263 
lfemur -10.721013 7.745577 -20.920933 
ltibia 59.687256 
lfoot 2.018498 6.390927 
ltoes -29.232509 
38
root -8.515771 17.428752 -20.566412 4.625490 -2.514507 6.303115
lowerback -10.240094 -3.500602 -4.308515 
upperback 1.417625 -4.151746 0.487692 
thorax 7.602173 -2.218257 2.234795 
lowerneck 1.455943 -10.586306 -6.790229 
upperneck 0.425856 -14.262097 13.502030 
head 1.370517 -7.079439 4.839846 
rclavicle 0.000000 0.000000 
rhumerus -43.677601 -36.522042 -69.548142 
rradius 29.319250 
rwrist 44.739080 
rhand -19.482465 -5.200187 
rfingers 0.000000 
rthumb 6.839401 -35.069676 
lclavicle 0.000000 0.000000 
lhumerus -28.253864 21.545927 82.608666 
lradius 32.292811 
lwrist -41.309084 
lhand -10.205067 4.871344 
lfingers 0.000000 
lthumb 15.786206 34.247635 
rfemur -26.557666 -2.826412 23.198854 
rtibia 32.896239 
rfoot -21.367419 -10.090085 
rtoes 10.202312 
lfemur -11.681420 7.692820 -20.547942 
ltibia 60.947729 
lfoot 1.327353 6.695570 
ltoes -28.734666 
